<svg xmlns="http://www.w3.org/2000/svg" viewBox="0 0 500 500"><g id="freepik--Robot--inject-62"><g id="freepik--robot--inject-62"><path d="M359.08,231.29a4.74,4.74,0,0,1-.65,0c-23.05-3.77-39.67-17.4-44.46-36.47a4,4,0,1,1,7.76-2c4,15.88,18.19,27.29,38,30.52a4,4,0,0,1-.64,7.95Z" style="fill:#37474f"></path><path id="freepik--sphere-12--inject-62" d="M344.9,180.4c-2.75,2.82-7.36,3.81-13.17,2.32-11.63-3-23.67-14.78-26.91-26.33-1.61-5.79-.72-10.41,2-13.22a26.62,26.62,0,1,1,38,37.23Z" style="fill:#237714"></path><path d="M331.73,182.72a19.88,19.88,0,0,0,6.06.66c-8.17-.54-24.2-11.51-25.71-26.83s13-23.29,23.2-19.67a26.64,26.64,0,0,0-28.43,6.28c-2.75,2.82-3.64,7.44-2,13.23C308.06,167.94,320.1,179.73,331.73,182.72Z" style="opacity:0.1"></path><circle cx="315.07" cy="171.86" r="32.5" transform="translate(107.7 464.79) rotate(-83.32)" style="fill:#f0f0f0"></circle><path d="M315,139.36v1a31.52,31.52,0,1,1-14.58,3.6,31.43,31.43,0,0,1,14.58-3.6v-1m0,0a32.51,32.51,0,1,0,28.82,17.44A32.44,32.44,0,0,0,315,139.36Z" style="fill:#e0e0e0"></path><path d="M324.06,188.37c-9.51,4.15-30.27,10.93-39.36-14.41-.19,0-.83,1.26-1.7,3.18a32.5,32.5,0,0,0,55.62,17.12C338.05,189.28,333.41,184.3,324.06,188.37Z" style="fill:#e0e0e0"></path><path d="M424.15,226.12,396,278.47c-14.53-7.57-46.35-26-50.18-35.43v0a18.2,18.2,0,0,1-1.61-8,27.43,27.43,0,0,1,6.35-17.44h0c3-3.6,9.57-4.55,9.57-4.55a4.37,4.37,0,0,1,2.87-4.43,12.82,12.82,0,0,1,1.56-.28h0C374.62,206.39,412.17,220,424.15,226.12Z" style="fill:#237714"></path><path d="M424.15,226.12,396,278.47c-14.53-7.57-46.35-26-50.18-35.43v0a18.2,18.2,0,0,1-1.61-8,27.43,27.43,0,0,1,6.35-17.44h0c3-3.6,9.57-4.55,9.57-4.55a4.37,4.37,0,0,1,2.87-4.43,12.82,12.82,0,0,1,1.56-.28h0C374.62,206.39,412.17,220,424.15,226.12Z" style="opacity:0.2"></path><path d="M405.53,238.8c2.25-1.16,4.05-3,6-4.63s4.31-3,6.84-3a148.58,148.58,0,0,0-56.08-22.27,4.27,4.27,0,0,0-2.21,4.08,22.51,22.51,0,0,0-5.92,1.86c9.33,2,18.36,5.78,27.16,9.6a140.3,140.3,0,0,1,16.6,8.16A28.41,28.41,0,0,1,405.53,238.8Z" style="fill:#237714;opacity:0.5"></path><path d="M375.19,231.1c-1.46-.84-3-1.56-4.61-2.32-1.41-.65-2.86-1.33-4.44-2.17l-.54-.29a72.81,72.81,0,0,0-7.38-3.6,3.7,3.7,0,0,0-2.38-.38,3.35,3.35,0,0,0-1.5,1c-4.56,4.94-5.41,16.16-5.1,24.45.33.35.68.69,1,1.05-.42-8.18.25-19.89,4.79-24.82a2.38,2.38,0,0,1,1-.73,1.27,1.27,0,0,1,.34,0,3.88,3.88,0,0,1,1.4.38,69.88,69.88,0,0,1,7.29,3.55l.54.29c1.6.85,3.07,1.54,4.49,2.2,1.6.75,3.1,1.45,4.54,2.29.44.22,1,.59,1.08,1.05a1.4,1.4,0,0,1-.39,1.12c-3.85,6.35-4.41,14-4.69,21.89,0,.89,0,1.86,0,2.88a35.37,35.37,0,0,1-.12,4.94l.93.58a33,33,0,0,0,.19-5.54c0-1-.05-2,0-2.83.27-7.77.82-15.26,4.52-21.36a2.29,2.29,0,0,0,.53-1.9A2.72,2.72,0,0,0,375.19,231.1Z" style="fill:#fff"></path><path d="M356.86,242.53A30.74,30.74,0,0,1,350.27,232a21,21,0,0,1,.93-15.1,7.6,7.6,0,0,0-.68.71h0A27.43,27.43,0,0,0,344.17,235a18.2,18.2,0,0,0,1.61,8v0c3.83,9.39,35.65,27.86,50.18,35.43l8.66-16.07A60.74,60.74,0,0,1,356.86,242.53Z" style="opacity:0.2"></path><path d="M375.89,213.65c-3-2.37-11.93-5.89-14.87-3.63a4.22,4.22,0,0,0-.93,3c3.69-.23,9.63,1.91,13.11,2.78S378.89,216,375.89,213.65Z" style="fill:#237714"></path><path d="M375.89,213.65c-3-2.37-11.93-5.89-14.87-3.63a4.22,4.22,0,0,0-.93,3c3.69-.23,9.63,1.91,13.11,2.78S378.89,216,375.89,213.65Z" style="opacity:0.5"></path><ellipse cx="410.7" cy="252.63" rx="29.73" ry="20.14" transform="translate(-3.75 499.06) rotate(-62.33)" style="fill:#237714"></ellipse><ellipse cx="410.7" cy="252.63" rx="29.73" ry="20.14" transform="translate(-3.75 499.06) rotate(-62.33)" style="opacity:0.05"></ellipse><ellipse cx="410.7" cy="252.63" rx="15.05" ry="8.93" transform="translate(-3.75 499.06) rotate(-62.33)" style="fill:#237714"></ellipse><ellipse cx="410.7" cy="252.63" rx="15.05" ry="8.93" transform="translate(-3.75 499.06) rotate(-62.33)" style="fill:#fff;opacity:0.6000000000000001"></ellipse><path d="M400.18,257.33a12.83,12.83,0,0,0,.47,4.62c.24-.09.48-.17.72-.28,5.81-2.6,10.89-10.58,11.35-17.84a12.83,12.83,0,0,0-.47-4.62c-.24.09-.48.17-.72.28C405.72,242.08,400.64,250.07,400.18,257.33Z" style="fill:#237714"></path><path d="M400.82,256.46c4-1.78,7.46-7.25,7.78-12.23a9.33,9.33,0,0,0-.22-2.77,23.84,23.84,0,0,0-8.14,15.22Z" style="fill:#fff;opacity:0.5"></path><path d="M412.81,221.72a27.14,27.14,0,0,0-2.11,6.41c-.35,1.65.89,2.49,3.79,3.19s12.68,4.13,18.75,11.72A99.61,99.61,0,0,1,444.49,261c1.78,3.48,4.06,4.87,7.9,3.48s7.69-3.71,7.9-8c0,0-3.68-16.48-19.15-26.16S412.81,221.72,412.81,221.72Z" style="fill:#37474f"></path><path d="M432.16,223.57c-12-3.69-19.43-3.13-19.41-1.63s9.75,2.2,18.62,8,14.89,14.93,18.29,21.33,5.63,8.54,8.45,8.18,3.45-6.08-.87-14.57S443.51,227.07,432.16,223.57Z" style="fill:#263238"></path><path d="M393.12,276.16l-7-3s-2.06,4.33.18,8.37,11.54,13.76,27.12,16.87,22.42-.36,27.64-2.48,4.41-6.51,4.41-10c0,0-7.7,4.46-21.33,3.47S397.31,280.34,393.12,276.16Z" style="fill:#37474f"></path><path d="M393.12,276.16c5.33,8.36,16.75,14.43,30.62,15.58,13.67,1.13,20.62-2.75,21.66-5.49s-2.84-4.46-9.41-6.48c-11.21-3.45-13.39-9.19-13.39-9.19s-5.42,6.46-12.21,8.72S397.61,280.17,393.12,276.16Z" style="fill:#455a64"></path><path d="M257.93,272.89a32.51,32.51,0,0,0-15.63,2.52c.28-5.58,2.56-10.64,5.85-11.12C252.47,263.67,256,266.22,257.93,272.89Z" style="fill:#263238"></path><ellipse cx="260.58" cy="317.93" rx="38.27" ry="46.28" transform="translate(-103.68 127.42) rotate(-23.05)" style="fill:#455a64"></ellipse><path d="M252.12,360.3c.59.24,1.18.47,1.78.67a36,36,0,0,0,13.51,2.08c-19.57-6-17.87-35-15.14-41.05C244.22,336.54,249.84,354.37,252.12,360.3Z" style="fill:#237714"></path><path d="M252.12,360.3c.59.24,1.18.47,1.78.67a36,36,0,0,0,13.51,2.08c-19.57-6-17.87-35-15.14-41.05C244.22,336.54,249.84,354.37,252.12,360.3Z" style="fill:#fff;opacity:0.30000000000000004"></path><path d="M288.49,335.38c5.63-.49,9.05-2.05,11.09-3.58,0-.09,0-.16,0-.24a49,49,0,0,0,.56-8.28c-1.86,1.91-5,4-10.12,5.93-14.38,5.37-31-3.21-37.41-7.9C262.72,330,270.86,336.9,288.49,335.38Z" style="fill:#237714"></path><path d="M288.49,335.38c5.63-.49,9.05-2.05,11.09-3.58,0-.09,0-.16,0-.24a49,49,0,0,0,.56-8.28c-1.86,1.91-5,4-10.12,5.93-14.38,5.37-31-3.21-37.41-7.9C262.72,330,270.86,336.9,288.49,335.38Z" style="fill:#fff;opacity:0.30000000000000004"></path><path d="M252.65,321.31a3.62,3.62,0,0,0-.38.69C252.4,321.77,252.51,321.54,252.65,321.31Z" style="fill:#237714"></path><path d="M290.88,293.86a54.49,54.49,0,0,0-5-6.39c-17.52-3.58-29.93,14.5-33.24,33.84C262.75,292,284.22,289.42,290.88,293.86Z" style="fill:#237714"></path><path d="M290.88,293.86a54.49,54.49,0,0,0-5-6.39c-17.52-3.58-29.93,14.5-33.24,33.84C262.75,292,284.22,289.42,290.88,293.86Z" style="fill:#fff;opacity:0.30000000000000004"></path><path d="M221,313.51a52.64,52.64,0,0,0,.75,7.19c6.83,4.06,18.27,4.68,30.9.61C235,322,225.5,317.05,221,313.51Z" style="fill:#237714"></path><path d="M221,313.51a52.64,52.64,0,0,0,.75,7.19c6.83,4.06,18.27,4.68,30.9.61C235,322,225.5,317.05,221,313.51Z" style="fill:#fff;opacity:0.30000000000000004"></path><path d="M245.54,274.22a31.83,31.83,0,0,0-9,4.42c-2.54,19.37,2.95,32.88,16.09,42.67C238,302.89,242.82,282.25,245.54,274.22Z" style="fill:#237714"></path><path d="M245.54,274.22a31.83,31.83,0,0,0-9,4.42c-2.54,19.37,2.95,32.88,16.09,42.67C238,302.89,242.82,282.25,245.54,274.22Z" style="fill:#fff;opacity:0.30000000000000004"></path><ellipse cx="252.65" cy="321.31" rx="11.47" ry="13.88" transform="translate(-105.64 124.58) rotate(-23.05)" style="fill:#263238"></ellipse><path d="M254.65,308.4a10.57,10.57,0,0,0-5.32-.47,11.36,11.36,0,0,0-4.37,7.58c-1.11,7.13,3.24,14.74,9.7,17A10.59,10.59,0,0,0,260,333a11.37,11.37,0,0,0,4.37-7.59C265.46,318.26,261.12,310.66,254.65,308.4Z"></path><path d="M273.1,358.81a35.81,35.81,0,0,1-36.27-22.66c-7.39-18.51,0-28.32,5.47-32s6.06-10.5,5.5-18.9,10.57-12.93,19.47-10.37h0c-21.56-7.53-42,5.64-45.73,29.42s10.8,49.14,32.36,56.66c17.37,6.07,34-1.31,41.78-16.84C291.51,352.23,284,357.61,273.1,358.81Z" style="opacity:0.2"></path><path d="M294.44,319.8c1.85-.51,1.88-3.11,1.77-4.59a40,40,0,0,0-.67-4.88,42.3,42.3,0,0,0-9.2-19.09c-4.11-4.85-9.52-10.39-16.47-9.67-1.92.2-4.09,1.16-4.48,3.05s1.11,3.52,2.5,4.8c2.07,1.9,4.21,3.73,6.24,5.69a95.9,95.9,0,0,1,16.37,21.94C291.23,318.34,292.68,320.28,294.44,319.8Zm2.63,4.79c-.8-1.91-2.88-1.76-3.63.07a8.31,8.31,0,0,0-.6,2.5c-.07,1,.11,2.37,1,2.9a2.09,2.09,0,0,0,1.32.23c1.63-.23,2.19-1.65,2.2-3.1A6.33,6.33,0,0,0,297.07,324.59Z" style="fill:#fff;opacity:0.15"></path><path d="M270.24,276.06q-1.46-.65-3-1.17a37.13,37.13,0,0,0-9.34-2c-1.89-6.67-5.46-9.22-9.78-8.6-3.29.48-5.57,5.54-5.85,11.12a21.79,21.79,0,0,0,.52,6c1.75,7.37,4,18.67-4.06,20.38-4.11.87-9.52-1.93-14.8-6.61a69.32,69.32,0,0,1-13.55-16.85s16.48-34.35,33.42-36.79,23.64,17.78,25.31,24.68A38.81,38.81,0,0,1,270.24,276.06Z" style="fill:#37474f"></path><path d="M243.83,241.57c-16.94,2.44-33.42,36.79-33.42,36.79A69.32,69.32,0,0,0,224,295.21c5.28,4.68,10.69,7.48,14.8,6.61,5.88-1.25,6.26-7.65,5.36-13.88.59,5.44-3.12,12-7.85,9.82-5-2.27-11.63-12.1-5.63-19.29s7.51-12.68,8.08-21.35,3.8-13.1,12.22-13.1l1.18-1.73A17.28,17.28,0,0,0,243.83,241.57Z" style="opacity:0.2"></path><path d="M173.3,124c-22.81,38.43-11.72,94.21-.54,118.11s31.76,42.64,48.1,34.31,9.77-28,22-32.55,25.07,14.48,26.31,22.34c4-1.11,2.89-6.36,3.7-17.21s2.49-23.89,24.83-57.89c17.89-27.23,19.78-36.11,19.78-50.42Z" style="fill:#fafafa"></path><path d="M173.83,125.11l142.6,16.51c-.07,13.7-2.14,22.41-19.6,49-23.29,35.44-24.28,48.69-25,58.36-.2,2.69-.28,5-.35,7-.19,5.09-.34,7.69-1.64,8.78-2-7.5-12-22.56-23.21-22.56a11.86,11.86,0,0,0-4.16.75c-6.19,2.28-7.88,8.12-9.68,14.29-2,6.92-4.09,14.08-12.38,18.3a17.3,17.3,0,0,1-7.91,1.9c-6.63,0-13.93-3.59-21.12-10.4-6.78-6.42-13.07-15.42-17.71-25.34-5.09-10.87-11-30.56-12.39-53.25-1.05-17.32.29-42.32,12.55-63.37M173.3,124c-22.81,38.43-11.72,94.21-.54,118.11,9.34,20,25.23,36.32,39.74,36.32a18.09,18.09,0,0,0,8.36-2c16.35-8.32,9.77-28,22-32.55a11.11,11.11,0,0,1,3.81-.68c10.93,0,21.39,16,22.5,23,4-1.11,2.89-6.36,3.7-17.21s2.49-23.89,24.83-57.89c17.89-27.23,19.78-36.11,19.78-50.42L173.3,124Z" style="fill:#e0e0e0"></path><path d="M207.85,177.37c-13.19,17.6-17.93,33.94-19.45,45.52-3.55-13.54-13.81-26.92-27.85-30.77.06.72.13,1.43.19,2.14,16.27,4.89,27,23.36,27,38.66h0c.09,10.92,2.21,29.18,13.79,42.71a30.17,30.17,0,0,0,4.46,1.8c-13.77-13.21-16.16-33.05-16.25-44.52-.08-10.37,2.37-31.22,19.7-54.35a1,1,0,1,0-1.6-1.19Z" style="fill:#237714"></path><path d="M289.39,172.35a1,1,0,0,0-.54,1.32c3,7,2.15,19.9-.67,32.72,1-1.65,2-3.38,3.09-5.17,1.94-11.18,2.15-21.9-.57-28.33A1,1,0,0,0,289.39,172.35Z" style="fill:#237714"></path><g style="opacity:0.30000000000000004"><path d="M289.63,172.93a.37.37,0,0,0-.2.49c2.86,6.74,2.26,19-.26,31.29.39-.67.79-1.34,1.21-2,2.18-11.62,2.55-22.91-.26-29.55A.37.37,0,0,0,289.63,172.93Z" style="fill:#fff"></path><path d="M208.35,177.74c-14.67,19.57-18.82,37.55-19.75,49.1-2.39-14.48-13-29.82-28-34.05,0,.27.05.53.08.8,16.67,4.87,27.7,23.72,27.7,39.33h0c.09,11.11,2.29,29.91,14.59,43.38.57.25,1.13.48,1.69.69-13.13-13.36-15.44-32.75-15.53-44.08-.09-10.44,2.38-31.45,19.82-54.72a.39.39,0,0,0-.07-.53A.38.38,0,0,0,208.35,177.74Z" style="fill:#fff"></path></g><path d="M201.84,187.29c4.34-.68,8.76-.18,13.14.19,21.34,1.84,43.7.61,62.71-9.26l30.94-38.51L173.3,124c-22.81,38.43-11.72,94.21-.54,118.11s31.76,42.64,48.1,34.31c7-3.55,9.79-9.19,11.65-14.83-6.29,6.11-16.69,8.25-25.31,5.48-11.25-3.62-19.46-13.55-24.4-24.28-4.75-10.31-7-22.16-4.08-33.12S190.62,189,201.84,187.29Z" style="opacity:0.05"></path><path d="M190.12,173.38c-14.56-9-21.84-20.84-21.84-32.66s7.28-23.63,21.84-32.65c29.13-18,76.35-18,105.47,0,14.57,9,21.85,20.84,21.85,32.66s-7.28,23.63-21.85,32.65C266.47,191.42,219.25,191.42,190.12,173.38Z" style="fill:#e0e0e0"></path><ellipse cx="242.86" cy="140.72" rx="66.86" ry="38.6" style="fill:#455a64"></ellipse><path d="M290.14,130.11C264,115,221.69,115,195.58,130.11c-9.36,5.4-15.34,12-18,19,2.65,6.94,8.63,13.55,18,19,26.11,15.08,68.45,15.08,94.56,0,9.35-5.4,15.34-12,18-19C305.48,142.12,299.49,135.51,290.14,130.11Z" style="fill:#37474f"></path><ellipse cx="246.88" cy="123.44" rx="86.17" ry="49.75" style="fill:#ebebeb"></ellipse><path d="M217.12,159.35a15.27,15.27,0,0,0-.64,2.09l-.6,2.3q-.3,1.14-.57,2.28a10.94,10.94,0,0,0-.23,1.11,4.3,4.3,0,0,0,0,1.34c0,.13.15.3.27.16a5.27,5.27,0,0,0,.9-2.07c.22-.79.42-1.59.62-2.38s.37-1.51.55-2.27a13.8,13.8,0,0,0,.47-2.3C217.92,159.24,217.29,159,217.12,159.35Z" style="fill:#e0e0e0"></path><path d="M177.79,138.42a7.25,7.25,0,0,0-1.51,1.52c-.46.55-.91,1.1-1.35,1.66a10.93,10.93,0,0,0-2.17,3.63c0,.07.07.29.17.21a8.93,8.93,0,0,0,1.46-1.61c.45-.56.88-1.15,1.32-1.72s.84-1.07,1.28-1.6l.67-.77a3.53,3.53,0,0,0,.61-.84C178.37,138.63,178.07,138.25,177.79,138.42Z" style="fill:#e0e0e0"></path><path d="M276.64,159.35a15.27,15.27,0,0,1,.64,2.09c.2.77.41,1.54.6,2.3s.39,1.52.57,2.28c.09.37.18.74.24,1.11a4.63,4.63,0,0,1,0,1.34c0,.13-.16.3-.27.16a5.29,5.29,0,0,1-.91-2.07c-.22-.79-.41-1.59-.61-2.38s-.37-1.51-.56-2.27a14.89,14.89,0,0,1-.47-2.3C275.84,159.24,276.47,159,276.64,159.35Z" style="fill:#e0e0e0"></path><path d="M316,138.42a7,7,0,0,1,1.51,1.52c.46.55.92,1.1,1.36,1.66a10.91,10.91,0,0,1,2.16,3.63c0,.07-.06.29-.17.21a8.93,8.93,0,0,1-1.46-1.61c-.44-.56-.87-1.15-1.32-1.72s-.84-1.07-1.28-1.6c-.22-.26-.45-.51-.66-.77a3.28,3.28,0,0,1-.61-.84C315.4,138.63,315.69,138.25,316,138.42Z" style="fill:#e0e0e0"></path><ellipse cx="246.88" cy="116.12" rx="77.2" ry="44.57" style="fill:#fafafa"></ellipse><ellipse cx="246.88" cy="116.12" rx="68.56" ry="36.06" style="fill:#e0e0e0"></ellipse><path d="M295.36,101.9c-26.77-14.09-70.19-14.09-97,0-10.65,5.6-17.05,12.59-19.23,19.86,2.18,7.27,8.58,14.26,19.23,19.86,26.78,14.08,70.19,14.08,97,0C306,136,312.42,129,314.59,121.76,312.42,114.49,306,107.5,295.36,101.9Z" style="fill:#455a64"></path><circle cx="246.88" cy="167.23" r="1.54" style="fill:#237714"></circle><circle cx="302.25" cy="154.21" r="1.54" style="fill:#237714"></circle><circle cx="328.12" cy="124.17" r="1.54" style="fill:#237714"></circle><circle cx="191.51" cy="154.21" r="1.54" style="fill:#237714"></circle><circle cx="165.64" cy="124.17" r="1.54" style="fill:#237714"></circle><path d="M269.82,116.09c0-3.39-2.24-6.78-6.72-9.37-9-5.17-23.48-5.17-32.44,0-4.48,2.59-6.72,6-6.72,9.37V133c0,3.39,2.24,6.78,6.72,9.37,9,5.17,23.49,5.17,32.44,0,4.48-2.59,6.72-6,6.72-9.37Z" style="fill:#263238"></path><path d="M230.66,106.72c-4.48,2.59-6.72,6-6.72,9.37s2.24,6.77,6.72,9.36c9,5.17,23.49,5.17,32.44,0,4.48-2.59,6.72-6,6.72-9.36s-2.24-6.78-6.72-9.37C254.14,101.55,239.62,101.55,230.66,106.72Z" style="fill:#455a64"></path><path d="M270,129.86c-21.12,3.55-41.37,1.5-49.26-2s-6.52-8.43-14.52-13.31-13.88-9.1-16-15.37,8.64-46.9,53.48-46.9,56.35,30.93,58.67,43.09c2.61,13.68,1.89,20.15-4.25,24.22S285.65,127.23,270,129.86Z" style="fill:#fafafa"></path><path d="M249.57,52.54c-1.9-.12-3.84-.21-5.87-.21-44.84,0-55.58,40.63-53.48,46.9s8,10.48,16,15.37,6.63,9.86,14.52,13.31c7.55,3.31,26.42,5.31,46.54,2.38-31.32,4-42.48-3.23-44.93-7.24s-3.07-10.19-10-16.42-10.65-12.12-5.56-26.25S227.22,52.64,249.57,52.54Z" style="fill:#ebebeb"></path><path d="M262,72.75c-14.59,1.4-26.43,9.46-31.16,16.6s-4.88,16.11-5.59,22.22-.17,11.58,9.27,12.34A121.72,121.72,0,0,0,269,122.58c12.72-2.23,20.38-5.94,23.14-7.74,4-2.62,6.46-6.14,5.5-14-.91-7.48-3.33-15.42-8.13-20.62S276.64,71.36,262,72.75Z" style="fill:#263238"></path><path d="M280.47,118.87h0a.13.13,0,0,0,.12-.14c-.06-1.11-.13-2.2-.2-3.24a.13.13,0,0,0-.15-.12.14.14,0,0,0-.12.14c.08,1,.15,2.13.21,3.24A.12.12,0,0,0,280.47,118.87Z" style="fill:#237714"></path><path d="M280.66,108.14c1-.29,2.1-.6,3.13-.92a.13.13,0,0,0-.07-.25c-1,.32-2.09.63-3.13.92a.14.14,0,0,0-.1.16.14.14,0,0,0,.13.1Z" style="fill:#237714"></path><path d="M283,94.94a.13.13,0,0,0-.16-.08c-1,.35-1.95.68-2.88,1a.13.13,0,0,0,0,.25h0c.93-.3,1.9-.63,2.89-1A.13.13,0,0,0,283,94.94Z" style="fill:#237714"></path><path d="M274.29,109.76h0c1.05-.24,2.12-.5,3.18-.77a.13.13,0,0,0,.09-.16.13.13,0,0,0-.16-.1c-1.06.27-2.12.53-3.17.77a.14.14,0,0,0-.1.16A.14.14,0,0,0,274.29,109.76Z" style="fill:#237714"></path><path d="M284.15,79h.05a.13.13,0,0,0,.07-.17c-.37-1-.76-2-1.16-2.93a.12.12,0,0,0-.17-.07.13.13,0,0,0-.07.17c.4,1,.79,2,1.16,2.93A.13.13,0,0,0,284.15,79Z" style="fill:#237714"></path><path d="M280,112.4h0a.12.12,0,0,0,.12-.14c-.1-1.07-.21-2.16-.34-3.23a.13.13,0,0,0-.14-.11.13.13,0,0,0-.12.14c.12,1.07.24,2.16.34,3.23A.13.13,0,0,0,280,112.4Z" style="fill:#237714"></path><path d="M278.26,99.56h0a.13.13,0,0,0,.11-.15c-.19-1.08-.38-2.15-.58-3.19a.12.12,0,0,0-.15-.1.13.13,0,0,0-.11.15c.2,1,.39,2.11.58,3.19A.14.14,0,0,0,278.26,99.56Z" style="fill:#237714"></path><path d="M264.85,84.8a.14.14,0,0,0,.13.11h0c1.09-.14,2.18-.3,3.25-.45a.13.13,0,0,0,.11-.15.12.12,0,0,0-.15-.11c-1.07.15-2.16.31-3.25.45A.13.13,0,0,0,264.85,84.8Z" style="fill:#237714"></path><path d="M274.11,97.65h0c1-.22,2-.46,3-.71a.13.13,0,0,0,.09-.16.13.13,0,0,0-.16-.1c-.94.25-1.94.49-3,.71a.14.14,0,0,0-.1.16A.14.14,0,0,0,274.11,97.65Z" style="fill:#237714"></path><path d="M267,114.88a.14.14,0,0,0-.12.14c.08,1.1.15,2.21.21,3.3a.12.12,0,0,0,.13.12h0a.12.12,0,0,0,.12-.13c-.06-1.1-.13-2.21-.21-3.3A.12.12,0,0,0,267,114.88Z" style="fill:#237714"></path><path d="M284.38,81.47h0c1.23-.28,2.24-.55,3.19-.83a.13.13,0,0,0,.08-.17.13.13,0,0,0-.16-.09c-.94.29-1.95.55-3.17.83a.14.14,0,0,0-.1.16A.14.14,0,0,0,284.38,81.47Z" style="fill:#237714"></path><path d="M268.1,98.48a.13.13,0,0,0-.11.15.14.14,0,0,0,.13.11h0c1.07-.17,2.06-.33,3-.5a.12.12,0,0,0,.1-.15.13.13,0,0,0-.15-.11C270.15,98.15,269.17,98.31,268.1,98.48Z" style="fill:#237714"></path><path d="M266.36,108.31a.12.12,0,0,0-.11.14c.13,1.09.24,2.19.34,3.28a.14.14,0,0,0,.14.12h0a.13.13,0,0,0,.12-.14c-.11-1.09-.22-2.2-.35-3.29A.13.13,0,0,0,266.36,108.31Z" style="fill:#237714"></path><path d="M265.46,101.76a.13.13,0,0,0-.11.15c.17,1.07.33,2.17.49,3.27a.12.12,0,0,0,.13.11h0a.13.13,0,0,0,.12-.15c-.16-1.1-.32-2.2-.49-3.27A.13.13,0,0,0,265.46,101.76Z" style="fill:#237714"></path><path d="M271.92,74.32a.13.13,0,0,0,.12.08h0a.15.15,0,0,0,.08-.18c-.23-.58-.45-1.12-.69-1.64l-.3,0C271.44,73.12,271.68,73.7,271.92,74.32Z" style="fill:#237714"></path><path d="M286.19,84.93h0a.13.13,0,0,0,.08-.17c-.31-1-.63-2-1-3a.13.13,0,1,0-.25.09c.34,1,.66,2,1,3A.13.13,0,0,0,286.19,84.93Z" style="fill:#237714"></path><path d="M287,87.7a.13.13,0,0,0-.09.16c.27,1,.54,2,.78,3a.14.14,0,0,0,.13.1h0a.12.12,0,0,0,.1-.15c-.25-1-.51-2-.79-3.06A.13.13,0,0,0,287,87.7Z" style="fill:#237714"></path><path d="M228.64,100.69a.12.12,0,0,0,.13-.12.12.12,0,0,0-.12-.14l-2-.11-.06.26,2,.11Z" style="fill:#237714"></path><path d="M234.73,100.89a.13.13,0,0,0,0-.26c-1,0-2,0-3-.08h0a.14.14,0,0,0-.14.13.13.13,0,0,0,.13.13c1,0,2,.06,3,.08Z" style="fill:#237714"></path><path d="M232.13,112.83c-1.09-.07-2.18-.16-3.25-.26a.12.12,0,0,0-.14.11.13.13,0,0,0,.11.15c1.07.1,2.17.19,3.26.27h0a.14.14,0,0,0,0-.27Z" style="fill:#237714"></path><path d="M290.39,106.28a.13.13,0,0,0-.12.14c.09,1,.16,2.09.22,3.14a.12.12,0,0,0,.13.12h0a.13.13,0,0,0,.12-.14c-.05-1-.13-2.1-.22-3.14A.13.13,0,0,0,290.39,106.28Z" style="fill:#237714"></path><path d="M234.17,88.59a.13.13,0,0,0,.13.1h0a.13.13,0,0,0,.09-.16c-.14-.58-.31-1.16-.47-1.74h1.55a.13.13,0,0,0,.13-.13.13.13,0,0,0-.13-.13h-1.62l-.18-.66-.21.23.12.42h-.52l-.23.26h.82C233.85,87.39,234,88,234.17,88.59Z" style="fill:#237714"></path><path d="M296.18,102.66a.13.13,0,0,0-.17-.07c-1,.41-2,.81-3,1.2a.13.13,0,0,0-.07.17.13.13,0,0,0,.12.09h.05c1-.39,2-.8,3-1.21A.14.14,0,0,0,296.18,102.66Z" style="fill:#237714"></path><path d="M274.7,83.62c.27,1,.52,2,.79,3.14a.14.14,0,0,0,.13.1h0a.14.14,0,0,0,.1-.16c-.27-1.11-.53-2.14-.79-3.15a.13.13,0,0,0-.16-.09A.14.14,0,0,0,274.7,83.62Z" style="fill:#237714"></path><path d="M225.63,112.22l-.41,0,0,.26.41.06h0a.14.14,0,0,0,.13-.12A.13.13,0,0,0,225.63,112.22Z" style="fill:#237714"></path><path d="M267.34,121.48a.15.15,0,0,0-.13.14c0,.41,0,.83,0,1.25l.26-.05c0-.4,0-.81,0-1.21A.15.15,0,0,0,267.34,121.48Z" style="fill:#237714"></path><path d="M281.3,82a.13.13,0,0,0-.16-.1c-1.06.22-2.15.44-3.22.64a.14.14,0,0,0-.1.16.13.13,0,0,0,.13.1h0c1.07-.2,2.16-.42,3.23-.64A.14.14,0,0,0,281.3,82Z" style="fill:#237714"></path><path d="M271.35,83.85a.14.14,0,0,0,.13.11h0l3.24-.55a.13.13,0,0,0,.11-.15.12.12,0,0,0-.15-.11l-3.24.55A.13.13,0,0,0,271.35,83.85Z" style="fill:#237714"></path><path d="M278.77,102.49a.12.12,0,0,0-.11.15c.16,1.09.32,2.16.46,3.21a.13.13,0,0,0,.13.11h0a.13.13,0,0,0,.11-.15c-.14-1-.3-2.12-.46-3.21A.13.13,0,0,0,278.77,102.49Z" style="fill:#237714"></path><path d="M274,80.58h0a.13.13,0,0,0,.09-.16v0c-.33-1.21-.61-2.19-.89-3.08a.13.13,0,0,0-.16-.09.14.14,0,0,0-.09.17c.28.88.56,1.86.89,3.07v0A.13.13,0,0,0,274,80.58Z" style="fill:#237714"></path><path d="M290.08,103.4h0a.12.12,0,0,0,.11-.14c-.12-1.05-.26-2.11-.41-3.13a.12.12,0,0,0-.15-.11.13.13,0,0,0-.11.15c.15,1,.29,2.07.41,3.12A.14.14,0,0,0,290.08,103.4Z" style="fill:#237714"></path><path d="M285.68,93.78a.13.13,0,0,0-.07.17.13.13,0,0,0,.12.09h0c.9-.36,1.85-.75,2.81-1.17a.12.12,0,0,0,.07-.17.12.12,0,0,0-.17-.07C287.53,93,286.58,93.42,285.68,93.78Z" style="fill:#237714"></path><path d="M286.74,106.15a.13.13,0,0,0,.13.09h0c1-.34,2.08-.7,3.09-1.06a.13.13,0,0,0,.08-.17.14.14,0,0,0-.17-.08c-1,.36-2.05.72-3.08,1.06A.14.14,0,0,0,286.74,106.15Z" style="fill:#237714"></path><path d="M288.53,93.82a.12.12,0,0,0-.1.15c.21,1,.41,2,.6,3.09a.13.13,0,0,0,.13.11h0a.13.13,0,0,0,.11-.15c-.19-1-.39-2.09-.6-3.1A.14.14,0,0,0,288.53,93.82Z" style="fill:#237714"></path><path d="M277.05,93.19h0a.12.12,0,0,0,.1-.15c-.22-1.07-.45-2.14-.68-3.17a.13.13,0,1,0-.26.06c.23,1,.46,2.09.69,3.16A.13.13,0,0,0,277.05,93.19Z" style="fill:#237714"></path><path d="M236.29,100.58h0a.14.14,0,0,0,.12-.15c-.11-1-.23-2-.36-3a.11.11,0,0,0-.14-.11.13.13,0,0,0-.12.15c.13,1,.25,2,.35,3A.14.14,0,0,0,236.29,100.58Z" style="fill:#237714"></path><path d="M236.56,103.32a.13.13,0,0,0-.12.14c.08,1,.15,2,.21,3a.14.14,0,0,0,.14.12h0a.13.13,0,0,0,.13-.14c-.07-1-.14-2-.22-3A.13.13,0,0,0,236.56,103.32Z" style="fill:#237714"></path><path d="M236.82,109.48c.05,1,.09,2,.13,3a.13.13,0,0,0,.13.13h0a.13.13,0,0,0,.13-.14c0-1-.08-2-.13-3a.13.13,0,0,0-.14-.13A.13.13,0,0,0,236.82,109.48Z" style="fill:#237714"></path><path d="M235.5,94.6h0a.12.12,0,0,0,.1-.15c-.16-1-.34-2-.54-3a.13.13,0,1,0-.26.06c.2,1,.38,2,.54,3A.14.14,0,0,0,235.5,94.6Z" style="fill:#237714"></path><polygon points="237.19 115.5 237.23 115.51 237.32 115.5 237.19 115.5" style="fill:#237714"></polygon><path d="M241,100.78a.13.13,0,0,0-.13-.13h-3a.13.13,0,1,0,0,.26h3A.13.13,0,0,0,241,100.78Z" style="fill:#237714"></path><path d="M238.64,113.4a.13.13,0,0,0,.14-.13.13.13,0,0,0-.13-.13c-1.09,0-2.18-.06-3.26-.12h0a.13.13,0,0,0-.13.13.14.14,0,0,0,.12.14c1.09,0,2.19.09,3.27.11Z" style="fill:#237714"></path><path d="M237.1,117c0,.5,0,1,0,1.49a.13.13,0,0,0,.13.13h0a.13.13,0,0,0,.13-.13c0-.5,0-1,0-1.5s0-1,0-1.51h-.27C237.07,116,237.09,116.53,237.1,117Z" style="fill:#237714"></path><path d="M237.41,121.54a.13.13,0,0,0-.13-.13h0a.14.14,0,0,0-.14.12,24.55,24.55,0,0,1-.19,2.57l.27,0C237.31,123.32,237.38,122.48,237.41,121.54Z" style="fill:#237714"></path><path d="M252.15,121.77a.13.13,0,0,0-.13-.13h0a.13.13,0,0,0-.13.13c0,.89,0,1.8-.09,2.7h.27C252.1,123.56,252.13,122.66,252.15,121.77Z" style="fill:#237714"></path><path d="M241.91,113.18a.13.13,0,0,0,0,.26h.2c1,0,2,0,3.07,0a.13.13,0,0,0,.13-.14c0-.07-.05-.12-.14-.12-1,0-2.08,0-3.12,0Z" style="fill:#237714"></path><path d="M271.23,110.3a.13.13,0,0,0-.15-.1c-1.06.22-2.14.43-3.21.63a.12.12,0,0,0-.1.15.13.13,0,0,0,.13.11h0c1.07-.2,2.15-.41,3.21-.63A.13.13,0,0,0,271.23,110.3Z" style="fill:#237714"></path><path d="M294.21,90.18a.12.12,0,0,0-.17-.06l-2.77,1.27a.14.14,0,0,0-.06.18.14.14,0,0,0,.12.07h.05l2.77-1.27A.13.13,0,0,0,294.21,90.18Z" style="fill:#237714"></path><path d="M290.91,115.19c0-.82,0-1.66,0-2.5a.13.13,0,0,0-.13-.13h0a.13.13,0,0,0-.12.14c0,.84,0,1.68,0,2.49v.52l.27-.14Z" style="fill:#237714"></path><path d="M248.44,113.3h0c1.09,0,2.19-.11,3.26-.18a.13.13,0,0,0,.12-.14.12.12,0,0,0-.14-.13c-1.07.08-2.17.14-3.26.19a.12.12,0,0,0-.12.13A.13.13,0,0,0,248.44,113.3Z" style="fill:#237714"></path><path d="M246.91,100.48h0c-1,0-2,.08-3,.11a.13.13,0,0,0-.13.13.14.14,0,0,0,.13.13h0l3-.1a.14.14,0,0,0,.13-.14A.13.13,0,0,0,246.91,100.48Z" style="fill:#237714"></path><path d="M265.24,99a.14.14,0,0,0-.15-.12l-3,.38a.14.14,0,0,0-.12.15.14.14,0,0,0,.13.11h0l3-.38A.14.14,0,0,0,265.24,99Z" style="fill:#237714"></path><path d="M248.76,86.31c0-.07-.08-.12-.14-.13l-.42,0a.12.12,0,0,0,.06-.14c-.25-1.07-.52-2.14-.8-3.17a.14.14,0,0,0-.16-.1.13.13,0,0,0-.09.16c.27,1,.54,2.1.8,3.17a.12.12,0,0,0,.06.08l-2.73.14a.12.12,0,0,0-.12.13.13.13,0,0,0,.13.13h0l3.29-.16A.13.13,0,0,0,248.76,86.31Z" style="fill:#237714"></path><path d="M252,118.63h0a.13.13,0,0,0,.13-.13c0-1.09,0-2.19,0-3.27a.13.13,0,0,0-.13-.13h0a.12.12,0,0,0-.12.13c0,1.09,0,2.19,0,3.27A.13.13,0,0,0,252,118.63Z" style="fill:#237714"></path><path d="M252,112c-.06-1.08-.12-2.18-.2-3.26a.14.14,0,0,0-.27,0c.08,1.08.15,2.18.21,3.26a.12.12,0,0,0,.13.12h0A.13.13,0,0,0,252,112Z" style="fill:#237714"></path><path d="M251,102.06a.13.13,0,0,0-.12.14c.13,1.08.25,2.17.36,3.25a.12.12,0,0,0,.13.12h0a.14.14,0,0,0,.12-.14c-.11-1.09-.23-2.18-.36-3.26A.12.12,0,0,0,251,102.06Z" style="fill:#237714"></path><path d="M242.07,86.46h0c-1.09,0-2.19.05-3.28.06a.15.15,0,0,0-.13.14.13.13,0,0,0,.13.13h0l3.28-.07a.13.13,0,1,0,0-.26Z" style="fill:#237714"></path><path d="M261.1,82.43a.13.13,0,0,0-.09.16q.36,1.25.69,2.46l-3.26.36a.13.13,0,0,0-.12.14.14.14,0,0,0,.13.12h0l3.27-.36,0,0c0,.16.09.32.14.48a.12.12,0,0,0,.12.1h0a.14.14,0,0,0,.09-.17c-.28-1-.58-2.12-.89-3.18A.13.13,0,0,0,261.1,82.43Z" style="fill:#237714"></path><path d="M261.43,111.86a.13.13,0,0,0-.11.15.13.13,0,0,0,.13.11h0c1.08-.15,2.17-.31,3.24-.48a.13.13,0,0,0,.11-.15.14.14,0,0,0-.15-.11C263.59,111.55,262.5,111.71,261.43,111.86Z" style="fill:#237714"></path><path d="M263.62,92.29h0a.13.13,0,0,0,.1-.15c-.24-1.07-.5-2.16-.76-3.22a.13.13,0,0,0-.16-.1.13.13,0,0,0-.1.16c.26,1.06.52,2.15.76,3.21A.14.14,0,0,0,263.62,92.29Z" style="fill:#237714"></path><path d="M264.93,98.76h0a.13.13,0,0,0,.11-.15c-.19-1.07-.4-2.16-.62-3.25a.13.13,0,0,0-.16-.1.12.12,0,0,0-.1.15c.22,1.09.43,2.18.62,3.24A.13.13,0,0,0,264.93,98.76Z" style="fill:#237714"></path><path d="M253.12,100.26a.14.14,0,0,0-.14-.12c-1,.07-2,.14-3,.19a.14.14,0,0,0,0,.27h0l3-.2A.14.14,0,0,0,253.12,100.26Z" style="fill:#237714"></path><path d="M260.22,79.52a.14.14,0,0,0,.09-.17c-.34-1-.68-2.11-1-3.14a.13.13,0,0,0-.17-.08.13.13,0,0,0-.08.17c.35,1,.69,2.08,1,3.13a.13.13,0,0,0,.12.1Z" style="fill:#237714"></path><path d="M248.83,89.16a.14.14,0,0,0-.1.16c.23,1,.45,2.12.65,3.2a.15.15,0,0,0,.13.11h0a.13.13,0,0,0,.1-.15c-.21-1.08-.43-2.16-.65-3.21A.14.14,0,0,0,248.83,89.16Z" style="fill:#237714"></path><path d="M246.34,79.82a.12.12,0,0,0,.12.09h0a.14.14,0,0,0,.09-.17c-.24-.81-.49-1.63-.74-2.45l-.24.12C245.86,78.21,246.11,79,246.34,79.82Z" style="fill:#237714"></path><path d="M255.32,85.83a.13.13,0,0,0-.15-.11c-1.08.09-2.18.18-3.27.25a.14.14,0,0,0,0,.27h0l3.27-.26A.14.14,0,0,0,255.32,85.83Z" style="fill:#237714"></path><path d="M259.19,99.73a.14.14,0,0,0-.15-.12l-3,.29a.13.13,0,0,0-.12.14.14.14,0,0,0,.13.12h0c1-.09,2-.18,3-.29A.14.14,0,0,0,259.19,99.73Z" style="fill:#237714"></path><path d="M250.59,99.08h0a.14.14,0,0,0,.11-.15c-.15-1.09-.32-2.18-.5-3.24a.14.14,0,0,0-.15-.11.14.14,0,0,0-.11.16c.18,1.05.35,2.13.5,3.22A.14.14,0,0,0,250.59,99.08Z" style="fill:#237714"></path><path d="M255,112.86h0c1.09-.1,2.18-.21,3.25-.33a.15.15,0,0,0,.12-.15.14.14,0,0,0-.13-.12h0c-1.07.13-2.16.24-3.25.34a.12.12,0,0,0-.11.14A.12.12,0,0,0,255,112.86Z" style="fill:#237714"></path><path d="M258.11,103a10,10,0,1,1-14.3-11.1Z" style="fill:#237714"></path><path d="M256.3,102.76a8.43,8.43,0,1,1-12-9.32Z" style="fill:#fff;opacity:0.2"></path><path d="M255.39,102.83A5.61,5.61,0,1,1,247,97.17Z" style="fill:#fff;opacity:0.5"></path><path d="M274.11,101a8.64,8.64,0,0,0,10.08,4.25A8.77,8.77,0,0,0,289.56,94a9.13,9.13,0,0,0-6.92-6.27Z" style="fill:#237714"></path><path d="M275.67,100.62a7.28,7.28,0,0,0,8.5,3.59,7.39,7.39,0,0,0,4.53-9.43,7.7,7.7,0,0,0-5.84-5.29Z" style="fill:#fff;opacity:0.2"></path><path d="M276.88,100.61a4.39,4.39,0,0,0,5.11,2.15,4.45,4.45,0,0,0,2.71-5.66,4.62,4.62,0,0,0-3.5-3.17Z" style="fill:#fff;opacity:0.5"></path><circle cx="248.19" cy="102.39" r="2.7" style="fill:#fff"></circle><circle cx="281.44" cy="99.54" r="2.38" style="fill:#fff"></circle><path d="M210.23,94.39a21.76,21.76,0,0,0-2.29-2.1c-3-1.74-7.5,4.06-11.65,9.13s-4.46,6.8-3,8.91a13.71,13.71,0,0,0,2.84,2.79,24.52,24.52,0,0,0,6.84,5c2.49,1.25,4.52,1.19,6.21-7.83S211.74,95.94,210.23,94.39Z" style="fill:#e0e0e0"></path><path d="M207.94,92.29c-3-1.74-7.5,4.06-11.65,9.13s-4.46,6.8-3,8.91,4.89,4.4,7.38,5.64,4.53,1.19,6.21-7.82S209.73,93.32,207.94,92.29Z" style="fill:#fafafa"></path><path d="M104.35,237.56a4.53,4.53,0,0,1-.13-.64c-2.94-23.17,5.41-43,22.34-53a4,4,0,1,1,4.07,6.89c-14.09,8.33-21,25.19-18.47,45.1a4,4,0,0,1-7.81,1.64Z" style="fill:#37474f"></path><path d="M155.61,280.47,98,295.37c-4.32-15.8-12.4-51.7-8.12-60.89h0a18.15,18.15,0,0,1,4.79-6.62,27.37,27.37,0,0,1,17.1-7.2h0c4.71-.22,9.84,3.92,9.84,3.92a4.38,4.38,0,0,1,5.2-.9,12.72,12.72,0,0,1,1.27,1h0C136.41,230.73,152,267.49,155.61,280.47Z" style="fill:#237714"></path><path d="M155.61,280.47,98,295.37c-4.32-15.8-12.4-51.7-8.12-60.89h0a18.15,18.15,0,0,1,4.79-6.62,27.37,27.37,0,0,1,17.1-7.2h0c4.71-.22,9.84,3.92,9.84,3.92a4.38,4.38,0,0,1,5.2-.9,12.72,12.72,0,0,1,1.27,1h0C136.41,230.73,152,267.49,155.61,280.47Z" style="opacity:0.2"></path><path d="M133.37,280.36c4-.69,9.23.56,13,2.17-.5-6.2-.68-10.85-1.85-16.95-1.56-8.11-3.21-14.72-5-21.14-.83-3-2.42-6.52-3.54-9.43-2.87-4.95-5.59-8.77-7.79-10.4h0a12.72,12.72,0,0,0-1.27-1,4.38,4.38,0,0,0-5.2.9,21.9,21.9,0,0,0-6.34-3.41A122.23,122.23,0,0,1,133.37,280.36Z" style="fill:#237714;opacity:0.5"></path><path d="M118.68,247.94c-.38-1.64-.89-3.25-1.44-4.95-.47-1.48-1-3-1.42-4.74l-.15-.59a75.37,75.37,0,0,0-2.38-7.86,3.71,3.71,0,0,0-1.34-2,3.27,3.27,0,0,0-1.77-.41c-6.72,0-15.53,7-21.4,12.88,0,.47,0,1-.06,1.47,5.72-5.86,14.76-13.33,21.46-13.35a2.37,2.37,0,0,1,1.24.26,1.09,1.09,0,0,1,.26.22,3.85,3.85,0,0,1,.67,1.28,69.41,69.41,0,0,1,2.35,7.77l.16.59c.46,1.76,1,3.3,1.43,4.79.54,1.68,1,3.26,1.42,4.88a2,2,0,0,1,0,1.51,1.39,1.39,0,0,1-1.08.48c-7.27,1.49-13.25,6.26-19.25,11.43-.67.59-1.37,1.26-2.1,2a33.77,33.77,0,0,1-3.7,3.28c.07.36.14.71.2,1.07a31.53,31.53,0,0,0,4.2-3.63c.72-.7,1.4-1.37,2.06-1.93,5.89-5.09,11.75-9.77,18.74-11.2a2.29,2.29,0,0,0,1.76-.91A2.8,2.8,0,0,0,118.68,247.94Z" style="fill:#fff"></path><path d="M109.79,292.33c-.08-.17-.16-.35-.26-.52a97.27,97.27,0,0,1-11.72-51.2,28.17,28.17,0,0,1,1.51-8.75,17,17,0,0,1,16.62-10.49,10.72,10.72,0,0,0-4.1-.72h0a27.37,27.37,0,0,0-17.1,7.2,18.15,18.15,0,0,0-4.79,6.62h0c-4.28,9.19,3.8,45.09,8.12,60.89Z" style="opacity:0.2"></path><path d="M132,236.6c-.3-3.82-3.78-12.76-7.44-13.37a4.21,4.21,0,0,0-2.83,1.34c2.68,2.56,5.15,8.36,6.88,11.5S132.25,240.41,132,236.6Z" style="fill:#237714"></path><path d="M132,236.6c-.3-3.82-3.78-12.76-7.44-13.37a4.21,4.21,0,0,0-2.83,1.34c2.68,2.56,5.15,8.36,6.88,11.5S132.25,240.41,132,236.6Z" style="opacity:0.5"></path><ellipse cx="127.02" cy="288.63" rx="29.73" ry="20.14" transform="translate(-71.02 43.23) rotate(-15.15)" style="fill:#237714"></ellipse><ellipse cx="127.02" cy="288.63" rx="29.73" ry="20.14" transform="translate(-71.02 43.23) rotate(-15.15)" style="opacity:0.05"></ellipse><path d="M137.62,293.15c-5.64,4.6-15,6.3-20.8,3.8s-6-8.25-.39-12.85,14.94-6.3,20.8-3.8S143.25,288.55,137.62,293.15Z" style="fill:#237714"></path><path d="M137.62,293.15c-5.64,4.6-15,6.3-20.8,3.8s-6-8.25-.39-12.85,14.94-6.3,20.8-3.8S143.25,288.55,137.62,293.15Z" style="fill:#fff;opacity:0.6000000000000001"></path><path d="M116.43,284.1a12.67,12.67,0,0,0-3.07,3.49c.22.11.44.23.69.34,5.85,2.49,15.17.79,20.8-3.8a13,13,0,0,0,3.07-3.49l-.69-.34C131.37,277.8,122.06,279.5,116.43,284.1Z" style="fill:#237714"></path><path d="M117.5,284c4,1.71,10.39.55,14.25-2.6a9.14,9.14,0,0,0,1.89-2.05,23.91,23.91,0,0,0-16.7,4.38C117.12,283.8,117.3,283.9,117.5,284Z" style="fill:#fff;opacity:0.5"></path><path d="M151.13,269.16A27.74,27.74,0,0,0,145,272c-1.45.87-1.22,2.35.24,4.95s5.59,12.11,4.15,21.73a98.77,98.77,0,0,1-5.52,20.43c-1.34,3.68-.81,6.29,2.82,8.17s7.95,3.11,11.25.34c0,0,9.59-13.9,6.17-31.83S151.13,269.16,151.13,269.16Z" style="fill:#37474f"></path><path d="M162.92,284.61c-5.42-11.29-10.91-16.38-12-15.34s5,8.64,6.78,19.11-.83,21.06-3.22,27.91-2.43,9.93-.26,11.75,6.81-1.6,10.1-10.54S168.07,295.32,162.92,284.61Z" style="fill:#263238"></path><path d="M97.81,291.72l-2.53-7.18s-4.58,1.43-6,5.83-2.26,17.82,6,31.35,15.5,16.2,20.61,18.59,7.77-1.19,10.35-3.58c0,0-8.5-2.61-17-13.29S97.6,297.64,97.81,291.72Z" style="fill:#37474f"></path><path d="M97.81,291.72c-2.51,9.6.8,22.1,9.39,33.06,8.46,10.79,16,13.25,18.75,12.15s1.34-5.11-1.64-11.3c-5.09-10.58-2.37-16.07-2.37-16.07s-8.41.41-14.69-3S97.93,297.74,97.81,291.72Z" style="fill:#455a64"></path><circle cx="146.67" cy="167.32" r="32.5" style="fill:#fafafa"></circle><path d="M146.67,135.82a31.5,31.5,0,1,1-31.49,31.5,31.53,31.53,0,0,1,31.49-31.5m0-1a32.5,32.5,0,1,0,32.5,32.5,32.5,32.5,0,0,0-32.5-32.5Z" style="fill:#e0e0e0"></path><path id="freepik--sphere-12--inject-62" d="M168,147.63c1.21,3.75-.05,8.29-4.06,12.75-8,8.92-24.07,14.12-35.81,11.63-5.87-1.25-9.56-4.19-10.77-7.93A26.62,26.62,0,0,1,168,147.63Z" style="fill:#237714"></path><path d="M163.91,160.38a19.9,19.9,0,0,0,3.39-5.06c-4.26,7-21.41,16.11-35.69,10.33S117,143.31,124.94,136a26.63,26.63,0,0,0-7.61,28.1c1.21,3.74,4.9,6.68,10.77,7.93C139.84,174.5,155.87,169.3,163.91,160.38Z" style="opacity:0.1"></path><path d="M145.3,136.55a5.27,5.27,0,0,1-1.37,2.76,13.55,13.55,0,0,1-11.59,4,5.32,5.32,0,0,1-2.79-1.31c-1.35-1.33-1.28-3.36.47-5.38a13.56,13.56,0,0,1,11.59-4C144.22,133.13,145.54,134.68,145.3,136.55Z" style="fill:#237714"></path><path d="M145.3,136.55a5.27,5.27,0,0,1-1.37,2.76,13.55,13.55,0,0,1-11.59,4,5.32,5.32,0,0,1-2.79-1.31c-1.35-1.33-1.28-3.36.47-5.38a13.56,13.56,0,0,1,11.59-4C144.22,133.13,145.54,134.68,145.3,136.55Z" style="opacity:0.30000000000000004"></path><path d="M145.3,136.55a5.27,5.27,0,0,1-1.37,2.76,13.55,13.55,0,0,1-11.59,4,5.32,5.32,0,0,1-2.79-1.31,5.37,5.37,0,0,1,1.37-2.77,13.58,13.58,0,0,1,11.59-4A5.36,5.36,0,0,1,145.3,136.55Z"></path><path d="M148.13,194.52c-10.7-6.53-10-15.53-20.5-18.76-5.45-1.67-8.86,1.14-10.89,4.23a32.51,32.51,0,0,0,44.45,16.4C157.72,196.85,152.5,197.19,148.13,194.52Z" style="fill:#f0f0f0"></path><path d="M333.05,123.34a86.17,86.17,0,0,0-172.34,0h0c-.05,12.77,8.36,25.54,25.23,35.28,33.65,19.42,88.21,19.43,121.86,0,16.87-9.74,25.28-22.51,25.24-35.28Z" style="fill:#237714;opacity:0.15"></path><path d="M294.58,164.88c-15.89,2.25-37.09,2.72-53.14,0-18.58-3.1-36.11-11.31-49.12-25.38s-15.73-41.88-9.17-59.88c3.18-8.72,9.15-16.19,16-22.47a91.82,91.82,0,0,1,29.44-18,86.19,86.19,0,0,0-67.87,84.2h0c-.05,12.77,8.36,25.54,25.23,35.28C215.48,175.67,261.11,177.75,294.58,164.88Z" style="fill:#237714;opacity:0.15"></path><path d="M254.05,45A4.67,4.67,0,0,0,251,48.75a4.78,4.78,0,0,0,2.16,4,15.17,15.17,0,0,0,4.39,1.88c18.56,5.77,36.85,14.94,48.72,30.33,1.67,2.17,3.91,7.82,7.62,6.37,2.61-1,2-4.65,1.34-6.68-4-13.06-16.76-25.1-28.11-31.88C278.1,47.46,264.44,40.9,254.05,45Z" style="fill:#fff;opacity:0.5"></path><path d="M314,103.63a4.41,4.41,0,0,0,2.1,1.35c2,.68,4.55.18,5.4-1.72a4.43,4.43,0,0,0,.29-2.17c-.22-2.59-1.91-5.53-4.89-5.33-3.26.23-4.3,3.89-3.54,6.59A3.5,3.5,0,0,0,314,103.63Z" style="fill:#fff;opacity:0.5"></path></g></g></svg>